<svg width="32" height="32" viewBox="0 0 32 32" fill="none" xmlns="http://www.w3.org/2000/svg">
  <rect width="32" height="32" rx="8" fill="#2563EB"/>
  <path d="M8 12C8 10.8954 8.89543 10 10 10H14C15.1046 10 16 10.8954 16 12V14C16 15.1046 15.1046 16 14 16H10C8.89543 16 8 15.1046 8 14V12Z" fill="white"/>
  <path d="M18 12C18 10.8954 18.8954 10 20 10H22C23.1046 10 24 10.8954 24 12V14C24 15.1046 23.1046 16 22 16H20C18.8954 16 18 15.1046 18 14V12Z" fill="white"/>
  <path d="M8 18C8 16.8954 8.89543 16 10 16H22C23.1046 16 24 16.8954 24 18V20C24 21.1046 23.1046 22 22 22H10C8.89543 22 8 21.1046 8 20V18Z" fill="white"/>
  <circle cx="12" cy="13" r="1" fill="#2563EB"/>
  <circle cx="21" cy="13" r="1" fill="#2563EB"/>
  <rect x="10" y="18" width="12" height="2" rx="1" fill="#2563EB"/>
</svg>