<?xml version="1.0" encoding="UTF-8"?>
<svg version="1.1" xmlns="http://www.w3.org/2000/svg" width="500" height="500">
<path d="M0 0 C1.37633828 -0.00302555 2.75267487 -0.00691704 4.12900853 -0.01159257 C7.88754143 -0.02182959 11.64597848 -0.01970176 15.40451908 -0.01541197 C19.46737242 -0.01293687 23.53020314 -0.02196869 27.5930481 -0.02944946 C35.54401256 -0.04217729 43.49494321 -0.0439925 51.44591615 -0.0416492 C57.91199937 -0.03986353 64.37807236 -0.04162102 70.84415436 -0.04587364 C71.76572799 -0.04646883 72.68730163 -0.04706402 73.63680173 -0.04767724 C75.50922416 -0.04888905 77.38164658 -0.05010318 79.254069 -0.05131962 C96.80134463 -0.06218804 114.34860104 -0.06003613 131.89587775 -0.05393478 C147.9292605 -0.04876774 163.96258245 -0.06001667 179.99595317 -0.07903299 C196.47870398 -0.09843164 212.96142606 -0.10666374 229.44418836 -0.10290974 C238.69005411 -0.10100058 247.93586814 -0.10345731 257.18172455 -0.11762428 C265.05402845 -0.129565 272.92624881 -0.13091298 280.79855391 -0.11883412 C284.81044001 -0.11296392 288.82217349 -0.1117941 292.83404922 -0.12383652 C296.51558801 -0.13475834 300.19684793 -0.13151808 303.87837401 -0.11757483 C305.82205282 -0.1137112 307.76574433 -0.12442339 309.70939326 -0.13587171 C330.10662305 -0.01184348 348.8091834 6.63249832 363.46173096 21.01069641 C378.72757606 36.56782811 384.70191689 56.00620046 384.59941101 77.47219849 C384.60359449 78.85795241 384.60907752 80.2437029 384.61573082 81.62944716 C384.63007145 85.40018426 384.62597677 89.17070069 384.61856401 92.94144928 C384.61380612 97.02270325 384.62636526 101.10391124 384.63658142 105.18515015 C384.65372411 113.16646718 384.65461881 121.14770533 384.64936852 129.12903599 C384.64531686 135.62077826 384.64678217 142.11249733 384.65211678 148.60423851 C384.6528652 149.53037895 384.65361362 150.45651939 384.65438472 151.4107247 C384.6559163 153.29256506 384.65745465 155.17440542 384.65899969 157.05624577 C384.67270852 174.67990725 384.66729858 192.30352427 384.65581448 209.92718472 C384.64588537 226.02371085 384.65882007 242.12012198 384.68274867 258.21663038 C384.70717561 274.77407284 384.71673862 291.33146181 384.71009594 307.88892192 C384.7066115 317.17282658 384.70878433 326.45664286 384.72634697 335.74053383 C384.74111405 343.64420563 384.74164586 351.5477268 384.72427606 359.45139579 C384.71580032 363.47776741 384.71353174 367.50387049 384.72892761 371.53022766 C384.82017208 397.28163345 383.31737096 419.11908082 365.21173096 439.26069641 C364.43442627 440.17721985 364.43442627 440.17721985 363.64141846 441.11225891 C352.11431608 453.79786403 334.04417699 461.42065194 317.12026298 462.44844127 C313.56005696 462.52327212 310.00463982 462.53688319 306.44364929 462.52812195 C305.06944867 462.53186484 303.69525017 462.53646889 302.321055 462.54185259 C298.56831853 462.55401945 294.81567163 462.55382962 291.06291997 462.55146384 C287.00614083 462.55105406 282.94938979 462.56211028 278.8926239 462.57157898 C270.95268829 462.58815607 263.01278238 462.59368707 255.07283091 462.59480374 C248.61392403 462.59575593 242.15502691 462.59987476 235.69612312 462.60620499 C217.35858144 462.62380968 199.02106311 462.63304525 180.68351292 462.63154404 C179.20220863 462.63142417 179.20220863 462.63142417 177.690979 462.63130188 C176.20785244 462.63117924 176.20785244 462.63117924 174.69476373 462.63105412 C158.68279105 462.6302418 142.67091257 462.64936784 126.65896713 462.67757861 C110.19315107 462.70635859 93.72738087 462.72011605 77.26153904 462.71839106 C68.02729472 462.71772885 58.79314911 462.72314679 49.55892754 462.74474716 C41.69437863 462.76302655 33.82997317 462.76725126 25.96541213 462.75372832 C21.959184 462.74723211 17.95323052 462.74695885 13.94702911 462.76443481 C-12.01805358 462.8704252 -34.47511541 461.52053488 -54.78826904 443.26069641 C-55.70479248 442.48339172 -55.70479248 442.48339172 -56.63983154 441.69038391 C-69.32543667 430.16328154 -76.94822457 412.09314244 -77.9760139 395.16922843 C-78.05084475 391.60902242 -78.06445583 388.05360528 -78.05569458 384.49261475 C-78.05943747 383.11841412 -78.06404152 381.74421562 -78.06942523 380.37002045 C-78.08159209 376.61728398 -78.08140226 372.86463709 -78.07903647 369.11188543 C-78.07862669 365.05510629 -78.08968291 360.99835525 -78.09915161 356.94158936 C-78.11572871 349.00165374 -78.1212597 341.06174784 -78.12237637 333.12179636 C-78.12332856 326.66288949 -78.12744739 320.20399237 -78.13377762 313.74508858 C-78.15138231 295.40754689 -78.16061789 277.07002857 -78.15911667 258.73247837 C-78.15903676 257.74494218 -78.15895685 256.75740599 -78.15887451 255.73994446 C-78.15879275 254.75119342 -78.15871099 253.76244238 -78.15862675 252.74372918 C-78.15781443 236.73175651 -78.17694047 220.71987803 -78.20515124 204.70793258 C-78.23393122 188.24211653 -78.24768868 171.77634633 -78.24596369 155.3105045 C-78.24530148 146.07626017 -78.25071942 136.84211456 -78.27231979 127.60789299 C-78.29059918 119.74334408 -78.29482389 111.87893862 -78.28130095 104.01437759 C-78.27480474 100.00814946 -78.27453148 96.00219597 -78.29200745 91.99599457 C-78.39799783 66.03091187 -77.04810751 43.57385004 -58.78826904 23.26069641 C-58.27006592 22.64968079 -57.75186279 22.03866516 -57.21795654 21.40913391 C-42.5296455 5.24461071 -21.02030331 -0.06300469 0 0 Z " fill="#2D2D2D" transform="translate(96.78826904296875,18.739303588867188)"/>
<path d="M0 0 C1.69609406 0.05932205 1.69609406 0.05932205 3.42645264 0.11984253 C4.6370636 0.11823624 5.84767456 0.11662994 7.0949707 0.11497498 C10.39399917 0.12129906 13.68780256 0.17618649 16.98579597 0.25328851 C20.43953565 0.32235784 23.89339354 0.32853771 27.34771729 0.34156799 C33.87913429 0.3756712 40.40851037 0.46581104 46.93903112 0.57641238 C54.37772156 0.69964201 61.81651287 0.75991247 69.25597095 0.81506217 C84.55030572 0.92984322 99.84260756 1.12314473 115.13543701 1.36862183 C114.02989242 3.11517486 112.92312757 4.86095552 111.81585693 6.60641479 C111.19965988 7.57868011 110.58346283 8.55094543 109.94859314 9.55267334 C107.5510727 13.27617732 105.02486206 16.89303552 102.44793701 20.49362183 C101.40229336 21.96492572 100.35672253 23.43628138 99.31121826 24.90768433 C98.52158691 26.01611694 98.52158691 26.01611694 97.71600342 27.14694214 C95.1786847 30.71345439 92.65766657 34.29143119 90.13543701 37.86862183 C89.13552015 39.28534717 88.13552002 40.70201376 87.13543701 42.11862183 C86.39293701 43.17049683 86.39293701 43.17049683 85.63543701 44.24362183 C44.13543701 103.03528849 2.63543701 161.82695516 -38.86456299 220.61862183 C-39.35964355 221.32003296 -39.85472412 222.02144409 -40.36480713 222.74411011 C-41.36381438 224.15927551 -42.36300029 225.57431481 -43.36236572 226.98922729 C-45.87904265 230.5528451 -48.39247611 234.11867169 -50.89971924 237.68893433 C-51.40696533 238.41016479 -51.91421143 239.13139526 -52.43682861 239.8744812 C-53.37294457 241.20565527 -54.30800067 242.53757593 -55.24151611 243.87057495 C-56.15631157 245.17040768 -57.09835358 246.45139676 -58.06359863 247.71421814 C-59.51095712 249.84744954 -60.52617496 251.73339953 -61.5994873 254.04621887 C-63.96506956 258.62927863 -66.51306157 262.47532694 -70.86456299 265.36862183 C-79.21474523 267.95666551 -88.38753838 267.16646856 -97.01910377 266.8895309 C-100.46460586 266.79505481 -103.91035143 266.78689686 -107.35694885 266.76914978 C-113.86787225 266.72272521 -120.37496843 266.59993368 -126.88421422 266.44890743 C-134.300955 266.28060247 -141.71788948 266.19861684 -149.13606775 266.12347591 C-164.38110795 265.96714078 -179.62233999 265.7037226 -194.86456299 265.36862183 C-193.76246013 263.624209 -192.65870196 261.88084191 -191.55426025 260.13790894 C-190.93978531 259.16695786 -190.32531036 258.19600677 -189.69221497 257.19563293 C-187.19755313 253.33689134 -184.5252798 249.63028417 -181.80206299 245.93112183 C-177.06661468 239.43621967 -172.40135813 232.89816924 -167.80206299 226.30612183 C-167.21755371 225.46855347 -166.63304443 224.63098511 -166.03082275 223.76803589 C-164.86874368 222.10270695 -163.70671492 220.4373429 -162.54473877 218.77194214 C-159.95450532 215.06687704 -157.34840922 211.37309554 -154.73956299 207.68112183 C-154.2522168 206.99139282 -153.76487061 206.30166382 -153.26275635 205.59103394 C-152.28605695 204.20904082 -151.30925081 202.82712314 -150.33233643 201.44528198 C-147.84135313 197.92094667 -145.35311396 194.39467482 -142.86456299 190.86862183 C-141.86457576 189.45194614 -140.86457577 188.03527947 -139.86456299 186.61862183 C-139.36956299 185.91737183 -138.87456299 185.21612183 -138.36456299 184.49362183 C-104.86456299 137.03528849 -71.36456299 89.57695516 -37.86456299 42.11862183 C-37.36924072 41.41688843 -36.87391846 40.71515503 -36.36358643 39.99215698 C-35.36694394 38.5803009 -34.3701997 37.16851665 -33.37335205 35.75680542 C-30.82112853 32.14212913 -28.27086823 28.52609265 -25.72393799 24.90768433 C-25.20315674 24.16840698 -24.68237549 23.42912964 -24.14581299 22.66744995 C-23.17117584 21.28381328 -22.19714968 19.89974587 -21.22393799 18.5151062 C-20.32202801 17.23526519 -19.40916705 15.96305698 -18.48445892 14.69958973 C-16.79722734 12.33907232 -16.79722734 12.33907232 -15.25522614 9.59657574 C-10.9930032 2.7352797 -8.16692944 0.11712844 0 0 Z " fill="#FEFEFE" transform="translate(289.86456298828125,116.63137817382813)"/>
<path d="M0 0 C1.37633828 -0.00302555 2.75267487 -0.00691704 4.12900853 -0.01159257 C7.88754143 -0.02182959 11.64597848 -0.01970176 15.40451908 -0.01541197 C19.46737242 -0.01293687 23.53020314 -0.02196869 27.5930481 -0.02944946 C35.54401256 -0.04217729 43.49494321 -0.0439925 51.44591615 -0.0416492 C57.91199937 -0.03986353 64.37807236 -0.04162102 70.84415436 -0.04587364 C71.76572799 -0.04646883 72.68730163 -0.04706402 73.63680173 -0.04767724 C75.50922416 -0.04888905 77.38164658 -0.05010318 79.254069 -0.05131962 C96.80134463 -0.06218804 114.34860104 -0.06003613 131.89587775 -0.05393478 C147.9292605 -0.04876774 163.96258245 -0.06001667 179.99595317 -0.07903299 C196.47870398 -0.09843164 212.96142606 -0.10666374 229.44418836 -0.10290974 C238.69005411 -0.10100058 247.93586814 -0.10345731 257.18172455 -0.11762428 C265.05402845 -0.129565 272.92624881 -0.13091298 280.79855391 -0.11883412 C284.81044001 -0.11296392 288.82217349 -0.1117941 292.83404922 -0.12383652 C296.51558801 -0.13475834 300.19684793 -0.13151808 303.87837401 -0.11757483 C305.82205282 -0.1137112 307.76574433 -0.12442339 309.70939326 -0.13587171 C330.10662305 -0.01184348 348.8091834 6.63249832 363.46173096 21.01069641 C378.72757606 36.56782811 384.70191689 56.00620046 384.59941101 77.47219849 C384.60359449 78.85795241 384.60907752 80.2437029 384.61573082 81.62944716 C384.63007145 85.40018426 384.62597677 89.17070069 384.61856401 92.94144928 C384.61380612 97.02270325 384.62636526 101.10391124 384.63658142 105.18515015 C384.65372411 113.16646718 384.65461881 121.14770533 384.64936852 129.12903599 C384.64531686 135.62077826 384.64678217 142.11249733 384.65211678 148.60423851 C384.6528652 149.53037895 384.65361362 150.45651939 384.65438472 151.4107247 C384.6559163 153.29256506 384.65745465 155.17440542 384.65899969 157.05624577 C384.67270852 174.67990725 384.66729858 192.30352427 384.65581448 209.92718472 C384.64588537 226.02371085 384.65882007 242.12012198 384.68274867 258.21663038 C384.70717561 274.77407284 384.71673862 291.33146181 384.71009594 307.88892192 C384.7066115 317.17282658 384.70878433 326.45664286 384.72634697 335.74053383 C384.74111405 343.64420563 384.74164586 351.5477268 384.72427606 359.45139579 C384.71580032 363.47776741 384.71353174 367.50387049 384.72892761 371.53022766 C384.82017208 397.28163345 383.31737096 419.11908082 365.21173096 439.26069641 C364.43442627 440.17721985 364.43442627 440.17721985 363.64141846 441.11225891 C352.11431608 453.79786403 334.04417699 461.42065194 317.12026298 462.44844127 C313.56005696 462.52327212 310.00463982 462.53688319 306.44364929 462.52812195 C305.06944867 462.53186484 303.69525017 462.53646889 302.321055 462.54185259 C298.56831853 462.55401945 294.81567163 462.55382962 291.06291997 462.55146384 C287.00614083 462.55105406 282.94938979 462.56211028 278.8926239 462.57157898 C270.95268829 462.58815607 263.01278238 462.59368707 255.07283091 462.59480374 C248.61392403 462.59575593 242.15502691 462.59987476 235.69612312 462.60620499 C217.35858144 462.62380968 199.02106311 462.63304525 180.68351292 462.63154404 C179.20220863 462.63142417 179.20220863 462.63142417 177.690979 462.63130188 C176.20785244 462.63117924 176.20785244 462.63117924 174.69476373 462.63105412 C158.68279105 462.6302418 142.67091257 462.64936784 126.65896713 462.67757861 C110.19315107 462.70635859 93.72738087 462.72011605 77.26153904 462.71839106 C68.02729472 462.71772885 58.79314911 462.72314679 49.55892754 462.74474716 C41.69437863 462.76302655 33.82997317 462.76725126 25.96541213 462.75372832 C21.959184 462.74723211 17.95323052 462.74695885 13.94702911 462.76443481 C-12.01805358 462.8704252 -34.47511541 461.52053488 -54.78826904 443.26069641 C-55.70479248 442.48339172 -55.70479248 442.48339172 -56.63983154 441.69038391 C-69.32543667 430.16328154 -76.94822457 412.09314244 -77.9760139 395.16922843 C-78.05084475 391.60902242 -78.06445583 388.05360528 -78.05569458 384.49261475 C-78.05943747 383.11841412 -78.06404152 381.74421562 -78.06942523 380.37002045 C-78.08159209 376.61728398 -78.08140226 372.86463709 -78.07903647 369.11188543 C-78.07862669 365.05510629 -78.08968291 360.99835525 -78.09915161 356.94158936 C-78.11572871 349.00165374 -78.1212597 341.06174784 -78.12237637 333.12179636 C-78.12332856 326.66288949 -78.12744739 320.20399237 -78.13377762 313.74508858 C-78.15138231 295.40754689 -78.16061789 277.07002857 -78.15911667 258.73247837 C-78.15903676 257.74494218 -78.15895685 256.75740599 -78.15887451 255.73994446 C-78.15879275 254.75119342 -78.15871099 253.76244238 -78.15862675 252.74372918 C-78.15781443 236.73175651 -78.17694047 220.71987803 -78.20515124 204.70793258 C-78.23393122 188.24211653 -78.24768868 171.77634633 -78.24596369 155.3105045 C-78.24530148 146.07626017 -78.25071942 136.84211456 -78.27231979 127.60789299 C-78.29059918 119.74334408 -78.29482389 111.87893862 -78.28130095 104.01437759 C-78.27480474 100.00814946 -78.27453148 96.00219597 -78.29200745 91.99599457 C-78.39799783 66.03091187 -77.04810751 43.57385004 -58.78826904 23.26069641 C-58.27006592 22.64968079 -57.75186279 22.03866516 -57.21795654 21.40913391 C-42.5296455 5.24461071 -21.02030331 -0.06300469 0 0 Z M-53.44256592 33.5941925 C-63.7723908 46.38653369 -67.41656594 61.28316444 -67.28274536 77.51893616 C-67.28593116 78.89745547 -67.29086783 80.27597164 -67.29737818 81.65447927 C-67.31007202 85.40042258 -67.29817437 89.14592626 -67.28184962 92.89184022 C-67.26859068 96.9477326 -67.27861509 101.00357996 -67.28561401 105.05947876 C-67.29565535 112.9872174 -67.2844695 120.91478809 -67.26591341 128.84250584 C-67.24506583 138.08385674 -67.24528787 147.32517207 -67.24625857 156.56654206 C-67.24725802 173.05789052 -67.22898361 189.54916117 -67.19989014 206.04048157 C-67.17170059 222.02780067 -67.15754954 238.01505134 -67.15887451 254.00239563 C-67.15895442 254.987733 -67.15903434 255.97307036 -67.15911667 256.98826644 C-67.15919738 257.97193483 -67.15927809 258.95560321 -67.15936124 259.96907973 C-67.16074214 278.19703758 -67.14895631 296.42496648 -67.13105481 314.65291493 C-67.12503243 321.08896663 -67.12289694 327.52501299 -67.1219902 333.9610672 C-67.1206236 341.80520394 -67.11166145 349.64929185 -67.09332459 357.49340788 C-67.08411467 361.49263724 -67.07798799 365.49180432 -67.080513 369.491045 C-67.0827148 373.156136 -67.07559541 376.82108959 -67.06121595 380.48615196 C-67.05591223 382.43059632 -67.06028903 384.37505977 -67.06508005 386.31950545 C-66.96303427 404.85305321 -61.35725119 420.37380996 -48.53826904 433.94819641 C-35.05483471 446.90511293 -19.52244865 451.57907347 -1.2515564 451.5146637 C0.12178132 451.51697049 1.4951178 451.52014849 2.86845171 451.52411819 C6.6278287 451.53244493 10.38710375 451.52835056 14.14648104 451.52214575 C18.20656292 451.51761348 22.2666275 451.52460892 26.32670593 451.53010559 C34.27526905 451.53899344 42.22379438 451.53708015 50.17235897 451.53128031 C56.63423312 451.5267608 63.09609668 451.52615217 69.55797195 451.52832794 C70.4781961 451.52863441 71.39842024 451.52894087 72.34652997 451.52925663 C74.21606139 451.52989609 76.0855928 451.53054452 77.95512421 451.53120181 C95.48176548 451.53690349 113.00838581 451.53035008 130.53502364 451.51960108 C145.56463969 451.51066869 160.59422484 451.51221535 175.62384033 451.5214386 C193.08531027 451.53214923 210.54676186 451.53635105 228.00823462 451.53021407 C229.87144255 451.52957699 231.73465049 451.52894825 233.59785843 451.52832794 C234.51454013 451.52801939 235.43122182 451.52771084 236.37568175 451.52739294 C242.82669572 451.52566816 249.27769802 451.5285765 255.72871017 451.53328705 C263.59494268 451.53890481 271.46113528 451.53736073 279.32736324 451.52672556 C283.33870783 451.52148045 287.34998598 451.51939224 291.36133003 451.52602386 C295.03775402 451.5320097 298.71405033 451.528665 302.39046283 451.51806876 C304.34116453 451.51479766 306.29187518 451.52128218 308.24256742 451.52818322 C327.14653288 451.44427009 342.56636943 445.57275303 356.39923096 432.57319641 C366.412041 422.19885633 373.33013282 408.0506272 373.34036541 393.4783926 C373.34358986 392.31586702 373.3468143 391.15334144 373.35013646 389.9555878 C373.34858786 388.68265167 373.34703925 387.40971553 373.34544373 386.09820557 C373.34731225 384.72888344 373.34961312 383.35956185 373.35230905 381.99024111 C373.3584287 378.22797505 373.35829325 374.4657312 373.35711467 370.70346129 C373.3569107 366.64533687 373.36242921 362.5872196 373.36717224 358.52909851 C373.37548103 350.5774587 373.37822721 342.62582631 373.37878462 334.67418253 C373.37925982 328.20844201 373.38131476 321.74270393 373.38448524 315.27696419 C373.39329362 296.93989468 373.39790451 278.60283103 373.39715477 260.2657594 C373.39711481 259.27706957 373.39707486 258.28837974 373.39703369 257.26972961 C373.39699281 256.27983013 373.39695193 255.28993064 373.39690981 254.2700342 C373.39650363 238.23822988 373.4060657 222.20644908 373.42017206 206.17465156 C373.43454657 189.70789294 373.4414416 173.24114579 373.44057828 156.77438074 C373.44024661 147.5318681 373.44298043 138.28938008 373.45375633 129.04687309 C373.46287564 121.17477329 373.46502496 113.30270928 373.45824691 105.43060648 C373.45498849 101.41700693 373.45490036 97.403476 373.46360016 93.38988304 C373.47149654 89.70892157 373.47000192 86.02808276 373.46131603 82.34712417 C373.45906907 80.39874869 373.46658514 78.45036932 373.47455567 76.50200886 C373.43300689 65.83400578 372.6938114 55.66160802 367.58673096 46.13569641 C367.2319165 45.45756897 366.87710205 44.77944153 366.51153564 44.08076477 C358.12230594 28.50580008 345.67471386 18.64863203 328.7498672 13.51378965 C320.79600346 11.31199789 313.42136181 10.8313334 305.19641113 10.86628723 C303.8197692 10.86138718 302.44313139 10.85519227 301.06650043 10.84782934 C297.31631384 10.83154766 293.56633909 10.83372347 289.81612968 10.83920431 C285.75871122 10.84188918 281.70134738 10.82731552 277.64395142 10.81510925 C269.70728764 10.79411401 261.770697 10.78951101 253.83400872 10.79129714 C247.37847353 10.79260779 240.92296104 10.78878521 234.46743011 10.78137207 C232.6037492 10.77927274 230.74006828 10.77717514 228.87638736 10.77507925 C227.94860645 10.77403572 227.02082554 10.77299219 226.06493005 10.77191705 C208.54046991 10.75303838 191.01605168 10.75405754 173.49158558 10.76088637 C157.48550563 10.76645965 141.47958585 10.74564134 125.47354332 10.7125259 C109.01105174 10.67873233 92.54863676 10.66362765 76.08610988 10.66824293 C66.85470298 10.67048195 57.62344409 10.66532783 48.39206696 10.64035034 C40.53226625 10.61926383 32.67269471 10.61581771 24.81288436 10.63464993 C20.80873846 10.64376285 16.80501897 10.64508884 12.80090714 10.62429428 C-13.2347269 10.49804534 -35.34916561 12.76936072 -53.44256592 33.5941925 Z " fill="#FEFEFE" transform="translate(96.78826904296875,18.739303588867188)"/>
<path d="M0 0 C51.15 0 102.3 0 155 0 C150.60573449 6.90527438 146.23813506 13.64840293 141.4375 20.25 C140.63022461 21.37535156 140.63022461 21.37535156 139.80664062 22.5234375 C137.27083297 26.02657491 134.68704012 29.49223172 131.97265625 32.859375 C131.543479 33.39530273 131.11430176 33.93123047 130.67211914 34.48339844 C124.78364399 39.82420843 118.52431714 39.41222069 111.02783203 39.34057617 C109.82726669 39.34101425 108.62670135 39.34145233 107.38975525 39.34190369 C104.11113448 39.34017626 100.83290174 39.32516855 97.55435801 39.30418181 C94.12307845 39.28538176 90.69179064 39.28366196 87.26046753 39.28010559 C80.76884749 39.27079485 74.27737968 39.24619437 67.78582656 39.21605712 C60.39286291 39.18248274 52.99989185 39.16601949 45.60687089 39.15097082 C30.40448195 39.11964381 15.20229062 39.06464405 0 39 C0 26.13 0 13.26 0 0 Z " fill="#FCFCFC" transform="translate(103,118)"/>
<path d="M0 0 C1.20085739 -0.00073013 2.40171478 -0.00146027 3.63896179 -0.00221252 C6.90948006 0.00066042 10.17890851 0.02561777 13.44921112 0.06065726 C16.87510887 0.09205622 20.30103134 0.09486209 23.72705078 0.1007843 C30.20456879 0.1162833 36.68166148 0.15725745 43.15899277 0.20753175 C50.53745405 0.26354889 57.91593636 0.29094264 65.29455757 0.31600893 C80.46357419 0.36817765 95.63203888 0.45981902 110.80078125 0.56762695 C110.80078125 13.43762695 110.80078125 26.30762695 110.80078125 39.56762695 C59.65078125 39.56762695 8.50078125 39.56762695 -44.19921875 39.56762695 C-36.12346977 26.87716428 -36.12346977 26.87716428 -31.63671875 20.88012695 C-30.68091843 19.5976279 -29.72518856 18.31507633 -28.76953125 17.0324707 C-28.32254883 16.43418457 -27.87556641 15.83589844 -27.41503906 15.21948242 C-26.39652109 13.83568872 -25.41436589 12.42523001 -24.44140625 11.0090332 C-17.96251323 1.64473155 -11.10345831 -0.17799517 0 0 Z " fill="#FDFDFD" transform="translate(286.19921875,342.432373046875)"/>
</svg>
